<svg xmlns="http://www.w3.org/2000/svg" viewBox="0 0 613.8 491.04"><rect width="613.8" height="491.04" fill="#ffffff" id="bg" class="bg"/><g><g transform="translate(87.69,&#10;                                0.00) rotate(270, 21.92142857142857, 21.92142857142857)"><svg xmlns="http://www.w3.org/2000/svg" id="Layer_1" data-name="Layer 1" viewBox="0 0 100 100" width="43.84285714285714" height="43.84285714285714"><path d="M50,100h0A50,50,0,0,1,0,50V0H100V50A50,50,0,0,1,50,100Z" fill="#F18701"/></svg></g><g transform="translate(131.53,&#10;                                0.00) rotate(180, 21.92142857142857, 21.92142857142857)"><svg xmlns="http://www.w3.org/2000/svg" id="Layer_1" data-name="Layer 1" viewBox="0 0 100 100" width="43.84285714285714" height="43.84285714285714"><path d="M100,100A50,50,0,0,0,0,100Z" fill="#F7B801"/></svg></g><g transform="translate(87.69,&#10;                                43.84) rotate(0, 21.92142857142857, 21.92142857142857)"><svg xmlns="http://www.w3.org/2000/svg" id="Layer_1" data-name="Layer 1" viewBox="0 0 100 100" width="43.84285714285714" height="43.84285714285714"><circle cx="50" cy="50" r="50" fill="#4DD0E1"/></svg></g><g transform="translate(131.53,&#10;                                43.84) rotate(180, 21.92142857142857, 21.92142857142857)"><svg xmlns="http://www.w3.org/2000/svg" id="Layer_1" data-name="Layer 1" viewBox="0 0 100 100" width="43.84285714285714" height="43.84285714285714"><path d="M50,100a50,50,0,1,1,50-50v50Z" fill="#3A1C71"/></svg></g><g transform="translate(175.37,&#10;                                0.00) rotate(270, 21.92142857142857, 21.92142857142857)"><svg xmlns="http://www.w3.org/2000/svg" id="Layer_1" data-name="Layer 1" viewBox="0 0 100 100" width="43.84285714285714" height="43.84285714285714"><path d="M50,100h0A50,50,0,0,1,0,50V0H100V50A50,50,0,0,1,50,100Z" fill="#F18701"/></svg></g><g transform="translate(175.37,&#10;                                43.84) rotate(0, 21.92142857142857, 21.92142857142857)"><svg xmlns="http://www.w3.org/2000/svg" id="Layer_1" data-name="Layer 1" viewBox="0 0 100 100" width="43.84285714285714" height="43.84285714285714"><circle cx="50" cy="50" r="50" fill="#4DD0E1"/></svg></g><g transform="translate(219.21,&#10;                                43.84) rotate(270, 21.92142857142857, 21.92142857142857)"><svg xmlns="http://www.w3.org/2000/svg" id="Layer_1" data-name="Layer 1" viewBox="0 0 100 100" width="43.84285714285714" height="43.84285714285714"><path d="M50,100a50,50,0,1,1,50-50v50Z" fill="#3A1C71"/></svg></g><g transform="translate(263.06,&#10;                                0.00) rotate(270, 21.92142857142857, 21.92142857142857)"><svg xmlns="http://www.w3.org/2000/svg" id="Layer_1" data-name="Layer 1" viewBox="0 0 100 100" width="43.84285714285714" height="43.84285714285714"><path d="M50,100h0A50,50,0,0,1,0,50V0H100V50A50,50,0,0,1,50,100Z" fill="#F18701"/></svg></g><g transform="translate(306.90,&#10;                                43.84) rotate(90, 21.92142857142857, 21.92142857142857)"><svg xmlns="http://www.w3.org/2000/svg" id="Layer_1" data-name="Layer 1" viewBox="0 0 100 100" width="43.84285714285714" height="43.84285714285714"><path d="M100,100A50,50,0,0,0,0,100Z" fill="#F7B801"/></svg></g><g transform="translate(350.74,&#10;                                0.00) rotate(0, 21.92142857142857, 21.92142857142857)"><svg xmlns="http://www.w3.org/2000/svg" id="Layer_1" data-name="Layer 1" viewBox="0 0 100 100" width="43.84285714285714" height="43.84285714285714"><path d="M50,100h0A50,50,0,0,1,0,50V0H100V50A50,50,0,0,1,50,100Z" fill="#F18701"/></svg></g><g transform="translate(350.74,&#10;                                43.84) rotate(90, 21.92142857142857, 21.92142857142857)"><svg xmlns="http://www.w3.org/2000/svg" id="Layer_1" data-name="Layer 1" viewBox="0 0 100 100" width="43.84285714285714" height="43.84285714285714"><path d="M50,100h0A50,50,0,0,1,0,50V0H100V50A50,50,0,0,1,50,100Z" fill="#F18701"/></svg></g><g transform="translate(394.59,&#10;                                43.84) rotate(0, 21.92142857142857, 21.92142857142857)"><svg xmlns="http://www.w3.org/2000/svg" id="Layer_1" data-name="Layer 1" viewBox="0 0 100 100" width="43.84285714285714" height="43.84285714285714"><path d="M50,100a50,50,0,1,1,50-50v50Z" fill="#3A1C71"/></svg></g><g transform="translate(438.43,&#10;                                0.00) rotate(90, 21.92142857142857, 21.92142857142857)"><svg xmlns="http://www.w3.org/2000/svg" id="Layer_1" data-name="Layer 1" viewBox="0 0 100 100" width="43.84285714285714" height="43.84285714285714"><path d="M50,100a50,50,0,1,1,50-50v50Z" fill="#3A1C71"/></svg></g><g transform="translate(526.11,&#10;                                0.00) rotate(270, 21.92142857142857, 21.92142857142857)"><svg xmlns="http://www.w3.org/2000/svg" id="Layer_1" data-name="Layer 1" viewBox="0 0 100 100" width="43.84285714285714" height="43.84285714285714"><path d="M50,100a50,50,0,1,1,50-50v50Z" fill="#3A1C71"/></svg></g><g transform="translate(526.11,&#10;                                43.84) rotate(180, 21.92142857142857, 21.92142857142857)"><svg xmlns="http://www.w3.org/2000/svg" id="Layer_1" data-name="Layer 1" viewBox="0 0 100 100" width="43.84285714285714" height="43.84285714285714"><path d="M50,100h0A50,50,0,0,1,0,50V0H100V50A50,50,0,0,1,50,100Z" fill="#F18701"/></svg></g><g transform="translate(569.96,&#10;                                43.84) rotate(0, 21.92142857142857, 21.92142857142857)"><svg xmlns="http://www.w3.org/2000/svg" id="Layer_1" data-name="Layer 1" viewBox="0 0 100 100" width="43.84285714285714" height="43.84285714285714"><path d="M50,100a50,50,0,1,1,50-50v50Z" fill="#3A1C71"/></svg></g></g><g><g transform="translate(43.84,&#10;                                87.69) rotate(0, 21.92142857142857, 21.92142857142857)"><svg xmlns="http://www.w3.org/2000/svg" id="Layer_1" data-name="Layer 1" viewBox="0 0 100 100" width="43.84285714285714" height="43.84285714285714"><path d="M100,100A50,50,0,0,0,0,100Z" fill="#F7B801"/></svg></g><g transform="translate(0.00,&#10;                                131.53) rotate(180, 21.92142857142857, 21.92142857142857)"><svg xmlns="http://www.w3.org/2000/svg" id="Layer_1" data-name="Layer 1" viewBox="0 0 100 100" width="43.84285714285714" height="43.84285714285714"><circle cx="50" cy="50" r="50" fill="#4DD0E1"/></svg></g><g transform="translate(43.84,&#10;                                131.53) rotate(270, 21.92142857142857, 21.92142857142857)"><svg xmlns="http://www.w3.org/2000/svg" id="Layer_1" data-name="Layer 1" viewBox="0 0 100 100" width="43.84285714285714" height="43.84285714285714"><path d="M100,100A50,50,0,0,0,0,100Z" fill="#F7B801"/></svg></g><g transform="translate(131.53,&#10;                                131.53) rotate(270, 21.92142857142857, 21.92142857142857)"><svg xmlns="http://www.w3.org/2000/svg" id="Layer_1" data-name="Layer 1" viewBox="0 0 100 100" width="43.84285714285714" height="43.84285714285714"><path d="M50,100a50,50,0,1,1,50-50v50Z" fill="#3A1C71"/></svg></g><g transform="translate(175.37,&#10;                                87.69) rotate(270, 21.92142857142857, 21.92142857142857)"><svg xmlns="http://www.w3.org/2000/svg" id="Layer_1" data-name="Layer 1" viewBox="0 0 100 100" width="43.84285714285714" height="43.84285714285714"><path d="M50,100h0A50,50,0,0,1,0,50V0H100V50A50,50,0,0,1,50,100Z" fill="#F18701"/></svg></g><g transform="translate(175.37,&#10;                                131.53) rotate(180, 21.92142857142857, 21.92142857142857)"><svg xmlns="http://www.w3.org/2000/svg" id="Layer_1" data-name="Layer 1" viewBox="0 0 100 100" width="43.84285714285714" height="43.84285714285714"><path d="M50,100h0A50,50,0,0,1,0,50V0H100V50A50,50,0,0,1,50,100Z" fill="#F18701"/></svg></g><g transform="translate(263.06,&#10;                                87.69) rotate(90, 21.92142857142857, 21.92142857142857)"><svg xmlns="http://www.w3.org/2000/svg" id="Layer_1" data-name="Layer 1" viewBox="0 0 100 100" width="43.84285714285714" height="43.84285714285714"><path d="M50,100a50,50,0,1,1,50-50v50Z" fill="#3A1C71"/></svg></g><g transform="translate(263.06,&#10;                                131.53) rotate(180, 21.92142857142857, 21.92142857142857)"><svg xmlns="http://www.w3.org/2000/svg" id="Layer_1" data-name="Layer 1" viewBox="0 0 100 100" width="43.84285714285714" height="43.84285714285714"><circle cx="50" cy="50" r="50" fill="#4DD0E1"/></svg></g><g transform="translate(306.90,&#10;                                131.53) rotate(0, 21.92142857142857, 21.92142857142857)"><svg xmlns="http://www.w3.org/2000/svg" id="Layer_1" data-name="Layer 1" viewBox="0 0 100 100" width="43.84285714285714" height="43.84285714285714"><path d="M50,100a50,50,0,1,1,50-50v50Z" fill="#3A1C71"/></svg></g><g transform="translate(350.74,&#10;                                87.69) rotate(270, 21.92142857142857, 21.92142857142857)"><svg xmlns="http://www.w3.org/2000/svg" id="Layer_1" data-name="Layer 1" viewBox="0 0 100 100" width="43.84285714285714" height="43.84285714285714"><path d="M100,100A50,50,0,0,0,0,100Z" fill="#F7B801"/></svg></g><g transform="translate(394.59,&#10;                                87.69) rotate(180, 21.92142857142857, 21.92142857142857)"><svg xmlns="http://www.w3.org/2000/svg" id="Layer_1" data-name="Layer 1" viewBox="0 0 100 100" width="43.84285714285714" height="43.84285714285714"><path d="M100,100A50,50,0,0,0,0,100Z" fill="#F7B801"/></svg></g><g transform="translate(350.74,&#10;                                131.53) rotate(270, 21.92142857142857, 21.92142857142857)"><svg xmlns="http://www.w3.org/2000/svg" id="Layer_1" data-name="Layer 1" viewBox="0 0 100 100" width="43.84285714285714" height="43.84285714285714"><circle cx="50" cy="50" r="50" fill="#4DD0E1"/></svg></g><g transform="translate(438.43,&#10;                                87.69) rotate(0, 21.92142857142857, 21.92142857142857)"><svg xmlns="http://www.w3.org/2000/svg" id="Layer_1" data-name="Layer 1" viewBox="0 0 100 100" width="43.84285714285714" height="43.84285714285714"><path d="M50,100a50,50,0,1,1,50-50v50Z" fill="#3A1C71"/></svg></g><g transform="translate(438.43,&#10;                                131.53) rotate(90, 21.92142857142857, 21.92142857142857)"><svg xmlns="http://www.w3.org/2000/svg" id="Layer_1" data-name="Layer 1" viewBox="0 0 100 100" width="43.84285714285714" height="43.84285714285714"><circle cx="50" cy="50" r="50" fill="#4DD0E1"/></svg></g><g transform="translate(482.27,&#10;                                131.53) rotate(180, 21.92142857142857, 21.92142857142857)"><svg xmlns="http://www.w3.org/2000/svg" id="Layer_1" data-name="Layer 1" viewBox="0 0 100 100" width="43.84285714285714" height="43.84285714285714"><path d="M50,100a50,50,0,1,1,50-50v50Z" fill="#3A1C71"/></svg></g><g transform="translate(526.11,&#10;                                87.69) rotate(270, 21.92142857142857, 21.92142857142857)"><svg xmlns="http://www.w3.org/2000/svg" id="Layer_1" data-name="Layer 1" viewBox="0 0 100 100" width="43.84285714285714" height="43.84285714285714"><path d="M50,100a50,50,0,1,1,50-50v50Z" fill="#3A1C71"/></svg></g><g transform="translate(526.11,&#10;                                131.53) rotate(180, 21.92142857142857, 21.92142857142857)"><svg xmlns="http://www.w3.org/2000/svg" id="Layer_1" data-name="Layer 1" viewBox="0 0 100 100" width="43.84285714285714" height="43.84285714285714"><path d="M50,100h0A50,50,0,0,1,0,50V0H100V50A50,50,0,0,1,50,100Z" fill="#F18701"/></svg></g></g><g><g transform="translate(0.00,&#10;                                175.37) rotate(270, 21.92142857142857, 21.92142857142857)"><svg xmlns="http://www.w3.org/2000/svg" id="Layer_1" data-name="Layer 1" viewBox="0 0 100 100" width="43.84285714285714" height="43.84285714285714"><path d="M50,100a50,50,0,1,1,50-50v50Z" fill="#3A1C71"/></svg></g><g transform="translate(43.84,&#10;                                175.37) rotate(0, 21.92142857142857, 21.92142857142857)"><svg xmlns="http://www.w3.org/2000/svg" id="Layer_1" data-name="Layer 1" viewBox="0 0 100 100" width="43.84285714285714" height="43.84285714285714"><path d="M100,100A50,50,0,0,0,0,100Z" fill="#F7B801"/></svg></g><g transform="translate(0.00,&#10;                                219.21) rotate(270, 21.92142857142857, 21.92142857142857)"><svg xmlns="http://www.w3.org/2000/svg" id="Layer_1" data-name="Layer 1" viewBox="0 0 100 100" width="43.84285714285714" height="43.84285714285714"><path d="M50,100h0A50,50,0,0,1,0,50V0H100V50A50,50,0,0,1,50,100Z" fill="#F18701"/></svg></g><g transform="translate(87.69,&#10;                                175.37) rotate(0, 21.92142857142857, 21.92142857142857)"><svg xmlns="http://www.w3.org/2000/svg" id="Layer_1" data-name="Layer 1" viewBox="0 0 100 100" width="43.84285714285714" height="43.84285714285714"><path d="M50,100h0A50,50,0,0,1,0,50V0H100V50A50,50,0,0,1,50,100Z" fill="#F18701"/></svg></g><g transform="translate(87.69,&#10;                                219.21) rotate(90, 21.92142857142857, 21.92142857142857)"><svg xmlns="http://www.w3.org/2000/svg" id="Layer_1" data-name="Layer 1" viewBox="0 0 100 100" width="43.84285714285714" height="43.84285714285714"><circle cx="50" cy="50" r="50" fill="#4DD0E1"/></svg></g><g transform="translate(131.53,&#10;                                219.21) rotate(180, 21.92142857142857, 21.92142857142857)"><svg xmlns="http://www.w3.org/2000/svg" id="Layer_1" data-name="Layer 1" viewBox="0 0 100 100" width="43.84285714285714" height="43.84285714285714"><path d="M50,100a50,50,0,1,1,50-50v50Z" fill="#3A1C71"/></svg></g><g transform="translate(175.37,&#10;                                175.37) rotate(270, 21.92142857142857, 21.92142857142857)"><svg xmlns="http://www.w3.org/2000/svg" id="Layer_1" data-name="Layer 1" viewBox="0 0 100 100" width="43.84285714285714" height="43.84285714285714"><path d="M50,100a50,50,0,1,1,50-50v50Z" fill="#3A1C71"/></svg></g><g transform="translate(175.37,&#10;                                219.21) rotate(0, 21.92142857142857, 21.92142857142857)"><svg xmlns="http://www.w3.org/2000/svg" id="Layer_1" data-name="Layer 1" viewBox="0 0 100 100" width="43.84285714285714" height="43.84285714285714"><circle cx="50" cy="50" r="50" fill="#4DD0E1"/></svg></g><g transform="translate(219.21,&#10;                                219.21) rotate(270, 21.92142857142857, 21.92142857142857)"><svg xmlns="http://www.w3.org/2000/svg" id="Layer_1" data-name="Layer 1" viewBox="0 0 100 100" width="43.84285714285714" height="43.84285714285714"><path d="M50,100a50,50,0,1,1,50-50v50Z" fill="#3A1C71"/></svg></g><g transform="translate(263.06,&#10;                                175.37) rotate(270, 21.92142857142857, 21.92142857142857)"><svg xmlns="http://www.w3.org/2000/svg" id="Layer_1" data-name="Layer 1" viewBox="0 0 100 100" width="43.84285714285714" height="43.84285714285714"><path d="M50,100a50,50,0,1,1,50-50v50Z" fill="#3A1C71"/></svg></g><g transform="translate(263.06,&#10;                                219.21) rotate(270, 21.92142857142857, 21.92142857142857)"><svg xmlns="http://www.w3.org/2000/svg" id="Layer_1" data-name="Layer 1" viewBox="0 0 100 100" width="43.84285714285714" height="43.84285714285714"><circle cx="50" cy="50" r="50" fill="#4DD0E1"/></svg></g><g transform="translate(350.74,&#10;                                175.37) rotate(90, 21.92142857142857, 21.92142857142857)"><svg xmlns="http://www.w3.org/2000/svg" id="Layer_1" data-name="Layer 1" viewBox="0 0 100 100" width="43.84285714285714" height="43.84285714285714"><path d="M50,100a50,50,0,1,1,50-50v50Z" fill="#3A1C71"/></svg></g><g transform="translate(350.74,&#10;                                219.21) rotate(270, 21.92142857142857, 21.92142857142857)"><svg xmlns="http://www.w3.org/2000/svg" id="Layer_1" data-name="Layer 1" viewBox="0 0 100 100" width="43.84285714285714" height="43.84285714285714"><circle cx="50" cy="50" r="50" fill="#4DD0E1"/></svg></g><g transform="translate(394.59,&#10;                                219.21) rotate(270, 21.92142857142857, 21.92142857142857)"><svg xmlns="http://www.w3.org/2000/svg" id="Layer_1" data-name="Layer 1" viewBox="0 0 100 100" width="43.84285714285714" height="43.84285714285714"><path d="M50,100a50,50,0,1,1,50-50v50Z" fill="#3A1C71"/></svg></g><g transform="translate(438.43,&#10;                                175.37) rotate(270, 21.92142857142857, 21.92142857142857)"><svg xmlns="http://www.w3.org/2000/svg" id="Layer_1" data-name="Layer 1" viewBox="0 0 100 100" width="43.84285714285714" height="43.84285714285714"><path d="M50,100a50,50,0,1,1,50-50v50Z" fill="#3A1C71"/></svg></g><g transform="translate(438.43,&#10;                                219.21) rotate(180, 21.92142857142857, 21.92142857142857)"><svg xmlns="http://www.w3.org/2000/svg" id="Layer_1" data-name="Layer 1" viewBox="0 0 100 100" width="43.84285714285714" height="43.84285714285714"><circle cx="50" cy="50" r="50" fill="#4DD0E1"/></svg></g><g transform="translate(482.27,&#10;                                219.21) rotate(90, 21.92142857142857, 21.92142857142857)"><svg xmlns="http://www.w3.org/2000/svg" id="Layer_1" data-name="Layer 1" viewBox="0 0 100 100" width="43.84285714285714" height="43.84285714285714"><path d="M50,100a50,50,0,1,1,50-50v50Z" fill="#3A1C71"/></svg></g><g transform="translate(526.11,&#10;                                175.37) rotate(90, 21.92142857142857, 21.92142857142857)"><svg xmlns="http://www.w3.org/2000/svg" id="Layer_1" data-name="Layer 1" viewBox="0 0 100 100" width="43.84285714285714" height="43.84285714285714"><path d="M50,100h0A50,50,0,0,1,0,50V0H100V50A50,50,0,0,1,50,100Z" fill="#F18701"/></svg></g><g transform="translate(569.96,&#10;                                219.21) rotate(180, 21.92142857142857, 21.92142857142857)"><svg xmlns="http://www.w3.org/2000/svg" id="Layer_1" data-name="Layer 1" viewBox="0 0 100 100" width="43.84285714285714" height="43.84285714285714"><path d="M50,100a50,50,0,1,1,50-50v50Z" fill="#3A1C71"/></svg></g></g><g><g transform="translate(0.00,&#10;                                263.06) rotate(180, 21.92142857142857, 21.92142857142857)"><svg xmlns="http://www.w3.org/2000/svg" id="Layer_1" data-name="Layer 1" viewBox="0 0 100 100" width="43.84285714285714" height="43.84285714285714"><path d="M50,100a50,50,0,1,1,50-50v50Z" fill="#3A1C71"/></svg></g><g transform="translate(0.00,&#10;                                306.90) rotate(180, 21.92142857142857, 21.92142857142857)"><svg xmlns="http://www.w3.org/2000/svg" id="Layer_1" data-name="Layer 1" viewBox="0 0 100 100" width="43.84285714285714" height="43.84285714285714"><circle cx="50" cy="50" r="50" fill="#4DD0E1"/></svg></g><g transform="translate(43.84,&#10;                                306.90) rotate(180, 21.92142857142857, 21.92142857142857)"><svg xmlns="http://www.w3.org/2000/svg" id="Layer_1" data-name="Layer 1" viewBox="0 0 100 100" width="43.84285714285714" height="43.84285714285714"><path d="M50,100a50,50,0,1,1,50-50v50Z" fill="#3A1C71"/></svg></g><g transform="translate(87.69,&#10;                                263.06) rotate(0, 21.92142857142857, 21.92142857142857)"><svg xmlns="http://www.w3.org/2000/svg" id="Layer_1" data-name="Layer 1" viewBox="0 0 100 100" width="43.84285714285714" height="43.84285714285714"><path d="M50,100a50,50,0,1,1,50-50v50Z" fill="#3A1C71"/></svg></g><g transform="translate(175.37,&#10;                                263.06) rotate(180, 21.92142857142857, 21.92142857142857)"><svg xmlns="http://www.w3.org/2000/svg" id="Layer_1" data-name="Layer 1" viewBox="0 0 100 100" width="43.84285714285714" height="43.84285714285714"><path d="M50,100a50,50,0,1,1,50-50v50Z" fill="#3A1C71"/></svg></g><g transform="translate(219.21,&#10;                                263.06) rotate(270, 21.92142857142857, 21.92142857142857)"><svg xmlns="http://www.w3.org/2000/svg" id="Layer_1" data-name="Layer 1" viewBox="0 0 100 100" width="43.84285714285714" height="43.84285714285714"><path d="M50,100h0A50,50,0,0,1,0,50V0H100V50A50,50,0,0,1,50,100Z" fill="#F18701"/></svg></g><g transform="translate(175.37,&#10;                                306.90) rotate(0, 21.92142857142857, 21.92142857142857)"><svg xmlns="http://www.w3.org/2000/svg" id="Layer_1" data-name="Layer 1" viewBox="0 0 100 100" width="43.84285714285714" height="43.84285714285714"><path d="M50,100h0A50,50,0,0,1,0,50V0H100V50A50,50,0,0,1,50,100Z" fill="#F18701"/></svg></g><g transform="translate(219.21,&#10;                                306.90) rotate(270, 21.92142857142857, 21.92142857142857)"><svg xmlns="http://www.w3.org/2000/svg" id="Layer_1" data-name="Layer 1" viewBox="0 0 100 100" width="43.84285714285714" height="43.84285714285714"><path d="M50,100a50,50,0,1,1,50-50v50Z" fill="#3A1C71"/></svg></g><g transform="translate(263.06,&#10;                                263.06) rotate(90, 21.92142857142857, 21.92142857142857)"><svg xmlns="http://www.w3.org/2000/svg" id="Layer_1" data-name="Layer 1" viewBox="0 0 100 100" width="43.84285714285714" height="43.84285714285714"><path d="M50,100h0A50,50,0,0,1,0,50V0H100V50A50,50,0,0,1,50,100Z" fill="#F18701"/></svg></g><g transform="translate(263.06,&#10;                                306.90) rotate(270, 21.92142857142857, 21.92142857142857)"><svg xmlns="http://www.w3.org/2000/svg" id="Layer_1" data-name="Layer 1" viewBox="0 0 100 100" width="43.84285714285714" height="43.84285714285714"><circle cx="50" cy="50" r="50" fill="#4DD0E1"/></svg></g><g transform="translate(306.90,&#10;                                306.90) rotate(0, 21.92142857142857, 21.92142857142857)"><svg xmlns="http://www.w3.org/2000/svg" id="Layer_1" data-name="Layer 1" viewBox="0 0 100 100" width="43.84285714285714" height="43.84285714285714"><path d="M50,100a50,50,0,1,1,50-50v50Z" fill="#3A1C71"/></svg></g><g transform="translate(438.43,&#10;                                263.06) rotate(0, 21.92142857142857, 21.92142857142857)"><svg xmlns="http://www.w3.org/2000/svg" id="Layer_1" data-name="Layer 1" viewBox="0 0 100 100" width="43.84285714285714" height="43.84285714285714"><path d="M50,100a50,50,0,1,1,50-50v50Z" fill="#3A1C71"/></svg></g><g transform="translate(482.27,&#10;                                263.06) rotate(90, 21.92142857142857, 21.92142857142857)"><svg xmlns="http://www.w3.org/2000/svg" id="Layer_1" data-name="Layer 1" viewBox="0 0 100 100" width="43.84285714285714" height="43.84285714285714"><path d="M50,100h0A50,50,0,0,1,0,50V0H100V50A50,50,0,0,1,50,100Z" fill="#F18701"/></svg></g><g transform="translate(438.43,&#10;                                306.90) rotate(180, 21.92142857142857, 21.92142857142857)"><svg xmlns="http://www.w3.org/2000/svg" id="Layer_1" data-name="Layer 1" viewBox="0 0 100 100" width="43.84285714285714" height="43.84285714285714"><circle cx="50" cy="50" r="50" fill="#4DD0E1"/></svg></g><g transform="translate(482.27,&#10;                                306.90) rotate(90, 21.92142857142857, 21.92142857142857)"><svg xmlns="http://www.w3.org/2000/svg" id="Layer_1" data-name="Layer 1" viewBox="0 0 100 100" width="43.84285714285714" height="43.84285714285714"><path d="M50,100a50,50,0,1,1,50-50v50Z" fill="#3A1C71"/></svg></g><g transform="translate(526.11,&#10;                                263.06) rotate(180, 21.92142857142857, 21.92142857142857)"><svg xmlns="http://www.w3.org/2000/svg" id="Layer_1" data-name="Layer 1" viewBox="0 0 100 100" width="43.84285714285714" height="43.84285714285714"><path d="M50,100a50,50,0,1,1,50-50v50Z" fill="#3A1C71"/></svg></g><g transform="translate(526.11,&#10;                                306.90) rotate(180, 21.92142857142857, 21.92142857142857)"><svg xmlns="http://www.w3.org/2000/svg" id="Layer_1" data-name="Layer 1" viewBox="0 0 100 100" width="43.84285714285714" height="43.84285714285714"><circle cx="50" cy="50" r="50" fill="#4DD0E1"/></svg></g></g><g><g transform="translate(0.00,&#10;                                350.74) rotate(90, 21.92142857142857, 21.92142857142857)"><svg xmlns="http://www.w3.org/2000/svg" id="Layer_1" data-name="Layer 1" viewBox="0 0 100 100" width="43.84285714285714" height="43.84285714285714"><path d="M100,100A50,50,0,0,0,0,100Z" fill="#F7B801"/></svg></g><g transform="translate(43.84,&#10;                                394.59) rotate(90, 21.92142857142857, 21.92142857142857)"><svg xmlns="http://www.w3.org/2000/svg" id="Layer_1" data-name="Layer 1" viewBox="0 0 100 100" width="43.84285714285714" height="43.84285714285714"><path d="M50,100a50,50,0,1,1,50-50v50Z" fill="#3A1C71"/></svg></g><g transform="translate(87.69,&#10;                                350.74) rotate(270, 21.92142857142857, 21.92142857142857)"><svg xmlns="http://www.w3.org/2000/svg" id="Layer_1" data-name="Layer 1" viewBox="0 0 100 100" width="43.84285714285714" height="43.84285714285714"><path d="M50,100a50,50,0,1,1,50-50v50Z" fill="#3A1C71"/></svg></g><g transform="translate(87.69,&#10;                                394.59) rotate(180, 21.92142857142857, 21.92142857142857)"><svg xmlns="http://www.w3.org/2000/svg" id="Layer_1" data-name="Layer 1" viewBox="0 0 100 100" width="43.84285714285714" height="43.84285714285714"><circle cx="50" cy="50" r="50" fill="#4DD0E1"/></svg></g><g transform="translate(131.53,&#10;                                394.59) rotate(90, 21.92142857142857, 21.92142857142857)"><svg xmlns="http://www.w3.org/2000/svg" id="Layer_1" data-name="Layer 1" viewBox="0 0 100 100" width="43.84285714285714" height="43.84285714285714"><path d="M50,100a50,50,0,1,1,50-50v50Z" fill="#3A1C71"/></svg></g><g transform="translate(175.37,&#10;                                350.74) rotate(90, 21.92142857142857, 21.92142857142857)"><svg xmlns="http://www.w3.org/2000/svg" id="Layer_1" data-name="Layer 1" viewBox="0 0 100 100" width="43.84285714285714" height="43.84285714285714"><path d="M50,100a50,50,0,1,1,50-50v50Z" fill="#3A1C71"/></svg></g><g transform="translate(219.21,&#10;                                350.74) rotate(0, 21.92142857142857, 21.92142857142857)"><svg xmlns="http://www.w3.org/2000/svg" id="Layer_1" data-name="Layer 1" viewBox="0 0 100 100" width="43.84285714285714" height="43.84285714285714"><path d="M50,100h0A50,50,0,0,1,0,50V0H100V50A50,50,0,0,1,50,100Z" fill="#F18701"/></svg></g><g transform="translate(219.21,&#10;                                394.59) rotate(270, 21.92142857142857, 21.92142857142857)"><svg xmlns="http://www.w3.org/2000/svg" id="Layer_1" data-name="Layer 1" viewBox="0 0 100 100" width="43.84285714285714" height="43.84285714285714"><path d="M100,100A50,50,0,0,0,0,100Z" fill="#F7B801"/></svg></g><g transform="translate(263.06,&#10;                                350.74) rotate(90, 21.92142857142857, 21.92142857142857)"><svg xmlns="http://www.w3.org/2000/svg" id="Layer_1" data-name="Layer 1" viewBox="0 0 100 100" width="43.84285714285714" height="43.84285714285714"><path d="M50,100h0A50,50,0,0,1,0,50V0H100V50A50,50,0,0,1,50,100Z" fill="#F18701"/></svg></g><g transform="translate(306.90,&#10;                                350.74) rotate(180, 21.92142857142857, 21.92142857142857)"><svg xmlns="http://www.w3.org/2000/svg" id="Layer_1" data-name="Layer 1" viewBox="0 0 100 100" width="43.84285714285714" height="43.84285714285714"><path d="M100,100A50,50,0,0,0,0,100Z" fill="#F7B801"/></svg></g><g transform="translate(350.74,&#10;                                350.74) rotate(90, 21.92142857142857, 21.92142857142857)"><svg xmlns="http://www.w3.org/2000/svg" id="Layer_1" data-name="Layer 1" viewBox="0 0 100 100" width="43.84285714285714" height="43.84285714285714"><path d="M50,100h0A50,50,0,0,1,0,50V0H100V50A50,50,0,0,1,50,100Z" fill="#F18701"/></svg></g><g transform="translate(394.59,&#10;                                350.74) rotate(90, 21.92142857142857, 21.92142857142857)"><svg xmlns="http://www.w3.org/2000/svg" id="Layer_1" data-name="Layer 1" viewBox="0 0 100 100" width="43.84285714285714" height="43.84285714285714"><path d="M100,100A50,50,0,0,0,0,100Z" fill="#F7B801"/></svg></g><g transform="translate(350.74,&#10;                                394.59) rotate(0, 21.92142857142857, 21.92142857142857)"><svg xmlns="http://www.w3.org/2000/svg" id="Layer_1" data-name="Layer 1" viewBox="0 0 100 100" width="43.84285714285714" height="43.84285714285714"><circle cx="50" cy="50" r="50" fill="#4DD0E1"/></svg></g><g transform="translate(394.59,&#10;                                394.59) rotate(270, 21.92142857142857, 21.92142857142857)"><svg xmlns="http://www.w3.org/2000/svg" id="Layer_1" data-name="Layer 1" viewBox="0 0 100 100" width="43.84285714285714" height="43.84285714285714"><path d="M50,100a50,50,0,1,1,50-50v50Z" fill="#3A1C71"/></svg></g><g transform="translate(438.43,&#10;                                350.74) rotate(90, 21.92142857142857, 21.92142857142857)"><svg xmlns="http://www.w3.org/2000/svg" id="Layer_1" data-name="Layer 1" viewBox="0 0 100 100" width="43.84285714285714" height="43.84285714285714"><path d="M50,100h0A50,50,0,0,1,0,50V0H100V50A50,50,0,0,1,50,100Z" fill="#F18701"/></svg></g><g transform="translate(482.27,&#10;                                350.74) rotate(180, 21.92142857142857, 21.92142857142857)"><svg xmlns="http://www.w3.org/2000/svg" id="Layer_1" data-name="Layer 1" viewBox="0 0 100 100" width="43.84285714285714" height="43.84285714285714"><path d="M50,100h0A50,50,0,0,1,0,50V0H100V50A50,50,0,0,1,50,100Z" fill="#F18701"/></svg></g><g transform="translate(482.27,&#10;                                394.59) rotate(0, 21.92142857142857, 21.92142857142857)"><svg xmlns="http://www.w3.org/2000/svg" id="Layer_1" data-name="Layer 1" viewBox="0 0 100 100" width="43.84285714285714" height="43.84285714285714"><path d="M100,100A50,50,0,0,0,0,100Z" fill="#F7B801"/></svg></g><g transform="translate(526.11,&#10;                                350.74) rotate(90, 21.92142857142857, 21.92142857142857)"><svg xmlns="http://www.w3.org/2000/svg" id="Layer_1" data-name="Layer 1" viewBox="0 0 100 100" width="43.84285714285714" height="43.84285714285714"><path d="M50,100h0A50,50,0,0,1,0,50V0H100V50A50,50,0,0,1,50,100Z" fill="#F18701"/></svg></g></g><g><g transform="translate(0.00,&#10;                                438.43) rotate(90, 21.92142857142857, 21.92142857142857)"><svg xmlns="http://www.w3.org/2000/svg" id="Layer_1" data-name="Layer 1" viewBox="0 0 100 100" width="43.84285714285714" height="43.84285714285714"><path d="M50,100a50,50,0,1,1,50-50v50Z" fill="#3A1C71"/></svg></g><g transform="translate(43.84,&#10;                                482.27) rotate(90, 21.92142857142857, 21.92142857142857)"><svg xmlns="http://www.w3.org/2000/svg" id="Layer_1" data-name="Layer 1" viewBox="0 0 100 100" width="43.84285714285714" height="43.84285714285714"><path d="M50,100a50,50,0,1,1,50-50v50Z" fill="#3A1C71"/></svg></g><g transform="translate(87.69,&#10;                                438.43) rotate(90, 21.92142857142857, 21.92142857142857)"><svg xmlns="http://www.w3.org/2000/svg" id="Layer_1" data-name="Layer 1" viewBox="0 0 100 100" width="43.84285714285714" height="43.84285714285714"><path d="M50,100h0A50,50,0,0,1,0,50V0H100V50A50,50,0,0,1,50,100Z" fill="#F18701"/></svg></g><g transform="translate(131.53,&#10;                                482.27) rotate(90, 21.92142857142857, 21.92142857142857)"><svg xmlns="http://www.w3.org/2000/svg" id="Layer_1" data-name="Layer 1" viewBox="0 0 100 100" width="43.84285714285714" height="43.84285714285714"><path d="M50,100a50,50,0,1,1,50-50v50Z" fill="#3A1C71"/></svg></g><g transform="translate(175.37,&#10;                                438.43) rotate(0, 21.92142857142857, 21.92142857142857)"><svg xmlns="http://www.w3.org/2000/svg" id="Layer_1" data-name="Layer 1" viewBox="0 0 100 100" width="43.84285714285714" height="43.84285714285714"><path d="M100,100A50,50,0,0,0,0,100Z" fill="#F7B801"/></svg></g><g transform="translate(263.06,&#10;                                438.43) rotate(270, 21.92142857142857, 21.92142857142857)"><svg xmlns="http://www.w3.org/2000/svg" id="Layer_1" data-name="Layer 1" viewBox="0 0 100 100" width="43.84285714285714" height="43.84285714285714"><path d="M50,100h0A50,50,0,0,1,0,50V0H100V50A50,50,0,0,1,50,100Z" fill="#F18701"/></svg></g><g transform="translate(263.06,&#10;                                482.27) rotate(90, 21.92142857142857, 21.92142857142857)"><svg xmlns="http://www.w3.org/2000/svg" id="Layer_1" data-name="Layer 1" viewBox="0 0 100 100" width="43.84285714285714" height="43.84285714285714"><path d="M50,100h0A50,50,0,0,1,0,50V0H100V50A50,50,0,0,1,50,100Z" fill="#F18701"/></svg></g><g transform="translate(306.90,&#10;                                482.27) rotate(180, 21.92142857142857, 21.92142857142857)"><svg xmlns="http://www.w3.org/2000/svg" id="Layer_1" data-name="Layer 1" viewBox="0 0 100 100" width="43.84285714285714" height="43.84285714285714"><path d="M50,100a50,50,0,1,1,50-50v50Z" fill="#3A1C71"/></svg></g><g transform="translate(350.74,&#10;                                438.43) rotate(270, 21.92142857142857, 21.92142857142857)"><svg xmlns="http://www.w3.org/2000/svg" id="Layer_1" data-name="Layer 1" viewBox="0 0 100 100" width="43.84285714285714" height="43.84285714285714"><path d="M50,100a50,50,0,1,1,50-50v50Z" fill="#3A1C71"/></svg></g><g transform="translate(350.74,&#10;                                482.27) rotate(90, 21.92142857142857, 21.92142857142857)"><svg xmlns="http://www.w3.org/2000/svg" id="Layer_1" data-name="Layer 1" viewBox="0 0 100 100" width="43.84285714285714" height="43.84285714285714"><circle cx="50" cy="50" r="50" fill="#4DD0E1"/></svg></g><g transform="translate(438.43,&#10;                                438.43) rotate(0, 21.92142857142857, 21.92142857142857)"><svg xmlns="http://www.w3.org/2000/svg" id="Layer_1" data-name="Layer 1" viewBox="0 0 100 100" width="43.84285714285714" height="43.84285714285714"><path d="M50,100a50,50,0,1,1,50-50v50Z" fill="#3A1C71"/></svg></g><g transform="translate(482.27,&#10;                                438.43) rotate(90, 21.92142857142857, 21.92142857142857)"><svg xmlns="http://www.w3.org/2000/svg" id="Layer_1" data-name="Layer 1" viewBox="0 0 100 100" width="43.84285714285714" height="43.84285714285714"><path d="M100,100A50,50,0,0,0,0,100Z" fill="#F7B801"/></svg></g><g transform="translate(482.27,&#10;                                482.27) rotate(270, 21.92142857142857, 21.92142857142857)"><svg xmlns="http://www.w3.org/2000/svg" id="Layer_1" data-name="Layer 1" viewBox="0 0 100 100" width="43.84285714285714" height="43.84285714285714"><path d="M50,100a50,50,0,1,1,50-50v50Z" fill="#3A1C71"/></svg></g><g transform="translate(526.11,&#10;                                438.43) rotate(0, 21.92142857142857, 21.92142857142857)"><svg xmlns="http://www.w3.org/2000/svg" id="Layer_1" data-name="Layer 1" viewBox="0 0 100 100" width="43.84285714285714" height="43.84285714285714"><path d="M100,100A50,50,0,0,0,0,100Z" fill="#F7B801"/></svg></g><g transform="translate(569.96,&#10;                                482.27) rotate(90, 21.92142857142857, 21.92142857142857)"><svg xmlns="http://www.w3.org/2000/svg" id="Layer_1" data-name="Layer 1" viewBox="0 0 100 100" width="43.84285714285714" height="43.84285714285714"><path d="M50,100a50,50,0,1,1,50-50v50Z" fill="#3A1C71"/></svg></g></g></svg>